# xmcd
#
# Track frame offsets:
#	150
#	17258
#	33733
#	51887
#	70034
#	86268
#
# Disc length: 1324 seconds
#
# Revision: 12
# Processed by: cddbd v1.5.2PL0 Copyright (c) Steve Scherf et al.
# Submitted via: Jack! The Knife 20 Magnifico
#
DISCID=3e052a06
DTITLE=Bullet For My Valentine - Hand Of Blood
DYEAR=2005
DGENRE=Metal
TTITLE0=4 Words (To Choke Upon)
TTITLE1=Hand Of Blood
TTITLE2=Cries In Vain
TTITLE3=Curses
TTITLE4=No Control
TTITLE5=Just Another Star
EXTD=Colin Richardson
EXTT0=Tuck, Paget, Thomas, James
EXTT1=Tuck, Paget, Thomas, James
EXTT2=Tuck, Paget, Thomas, James
EXTT3=Tuck, Paget, Thomas, James
EXTT4=Tuck, Paget, Thomas, James
EXTT5=Tuck, Paget, Thomas, James
PLAYORDER=
